<?xml version="1.0" encoding="iso-8859-1"?>
<!-- Generator: Adobe Illustrator 17.1.0, SVG Export Plug-In . SVG Version: 6.00 Build 0)  -->
<!DOCTYPE svg PUBLIC "-//W3C//DTD SVG 1.1//EN" "http://www.w3.org/Graphics/SVG/1.1/DTD/svg11.dtd">
<svg version="1.1" id="Capa_1" xmlns="http://www.w3.org/2000/svg" xmlns:xlink="http://www.w3.org/1999/xlink" x="0px" y="0px"
	 viewBox="0 0 464.329 464.329" style="enable-background:new 0 0 464.329 464.329;" xml:space="preserve">
<path d="M399.261,40.025H248.057V15.006c0-2.761-2.238-5-5-5H93.206V5c0-2.761-2.238-5-5-5H65.068c-2.762,0-5,2.239-5,5v454.329
	c0,2.761,2.238,5,5,5h23.138c2.762,0,5-2.239,5-5V224.81h97.916v25.019c0,0.066,0.017,0.128,0.02,0.194
	c0.008,0.214,0.028,0.427,0.065,0.641c0.02,0.118,0.044,0.232,0.071,0.347c0.018,0.074,0.024,0.148,0.046,0.222
	c0.032,0.11,0.083,0.211,0.122,0.317c0.041,0.111,0.078,0.222,0.126,0.329c0.09,0.201,0.198,0.39,0.312,0.574
	c0.041,0.066,0.074,0.138,0.118,0.202c0.168,0.245,0.356,0.473,0.563,0.682c0.049,0.05,0.106,0.091,0.157,0.139
	c0.165,0.153,0.335,0.298,0.519,0.428c0.087,0.062,0.179,0.115,0.271,0.171c0.163,0.1,0.33,0.192,0.503,0.273
	c0.104,0.049,0.208,0.094,0.316,0.135c0.186,0.072,0.377,0.128,0.572,0.177c0.1,0.025,0.197,0.056,0.299,0.075
	c0.301,0.056,0.607,0.093,0.921,0.093h203.14c2.762,0,5-2.239,5-5V45.025C404.261,42.264,402.023,40.025,399.261,40.025z
	 M83.206,454.329H70.068V224.81h13.138V454.329z M225.959,224.81l-24.837,15.885V224.81H225.959z M394.261,244.829H213.219
	l32.532-20.807c0.016-0.01,0.028-0.024,0.044-0.035c0.172-0.113,0.326-0.249,0.482-0.382c0.097-0.082,0.204-0.154,0.293-0.242
	c0.118-0.116,0.214-0.251,0.32-0.379c0.101-0.122,0.214-0.236,0.302-0.366c0.087-0.128,0.15-0.272,0.225-0.408
	c0.079-0.144,0.17-0.282,0.235-0.432c0.06-0.139,0.093-0.291,0.141-0.436c0.053-0.163,0.116-0.322,0.152-0.489
	c0.026-0.121,0.028-0.248,0.045-0.372c0.028-0.205,0.06-0.409,0.062-0.617c0-0.019,0.006-0.036,0.006-0.055V89.811
	c0-2.761-2.238-5-5-5s-5,2.239-5,5V214.81H93.206V58.677c0-2.761-2.238-5-5-5s-5,2.239-5,5V214.81H70.068V10h13.138v18.658
	c0,2.761,2.238,5,5,5s5-2.239,5-5v-8.651h144.852v35.67c0,2.761,2.238,5,5,5s5-2.239,5-5v-5.652h146.204V244.829z"/>
<g>
</g>
<g>
</g>
<g>
</g>
<g>
</g>
<g>
</g>
<g>
</g>
<g>
</g>
<g>
</g>
<g>
</g>
<g>
</g>
<g>
</g>
<g>
</g>
<g>
</g>
<g>
</g>
<g>
</g>
</svg>
